<svg xmlns="http://www.w3.org/2000/svg" width="9120" height="1120" viewBox="0 0 9120 1120">
  <defs>
    <linearGradient id="bg" x1="0" y1="0" x2="1" y2="1">
      <stop offset="0%" stop-color="#050914"/>
      <stop offset="50%" stop-color="#0a1020"/>
      <stop offset="100%" stop-color="#060a16"/>
    </linearGradient>
    <linearGradient id="gold" x1="0" y1="0" x2="1" y2="1">
      <stop offset="0%" stop-color="#f7dfa9"/>
      <stop offset="50%" stop-color="#c7924a"/>
      <stop offset="100%" stop-color="#8e5e2d"/>
    </linearGradient>
    <linearGradient id="badge" x1="0" y1="0" x2="1" y2="0">
      <stop offset="0%" stop-color="#6f4920"/>
      <stop offset="50%" stop-color="#8c6230"/>
      <stop offset="100%" stop-color="#6a451e"/>
    </linearGradient>
    <filter id="softGlow" x="-30%" y="-30%" width="160%" height="160%">
      <feDropShadow dx="0" dy="0" stdDeviation="8" flood-color="#e0b369" flood-opacity="0.35"/>
    </filter>
    <style>
      .cn { font-family: "Microsoft YaHei", "Noto Sans SC", sans-serif; }
      .serif { font-family: "SimSun", "Songti SC", serif; }
      .title { font-size: 38px; fill: #ffd96e; font-weight: 700; }
      .date { font-size: 30px; fill: #f8e6bf; font-weight: 700; }
      .body { font-size: 24px; fill: #f4ead2; font-weight: 700; }
      .faint { font-size: 22px; fill: #cab18a; }
      .tiny { font-size: 20px; fill: #c5a67a; }
    </style>
  </defs>

  <rect width="9120" height="1120" fill="url(#bg)"/>

  <g opacity="0.18" stroke="#b77e3e" stroke-width="2" fill="none">
    <path d="M60 138 C980 36, 1980 270, 2960 152 S4900 28, 6100 176 S7940 252, 9060 108"/>
    <path d="M80 976 C900 834, 1880 1024, 2940 900 S4760 814, 6080 922 S7900 1038, 9060 934"/>
    <path d="M160 286 C1000 394, 1940 420, 2800 334 S4500 246, 5540 346 S7340 458, 8940 318"/>
    <path d="M120 764 C860 644, 1880 612, 2860 704 S4660 842, 6000 724 S7760 628, 8960 734"/>
  </g>

  <g stroke="#a36f38" stroke-width="4" fill="none" opacity="0.86">
    <path d="M34 40 h420 l24 -20 h570 l24 20 h620 l24 -20 h650 l24 20 h650 l24 -20 h650 l24 20 h700 l24 -20 h660 l24 20 h636"/>
    <path d="M38 1082 h9042"/>
    <path d="M88 62 h160"/>
    <path d="M8870 62 h150"/>
    <path d="M8450 1030 h420"/>
  </g>

  <text x="4560" y="76" text-anchor="middle" class="cn title">学科（学科历程） · 平台 · 人才 · 团队</text>

  <g opacity="0.56">
    <rect x="48" y="126" width="7880" height="818" rx="52" fill="rgba(10,14,26,0.42)" stroke="url(#gold)" stroke-width="2.5"/>
    <text x="176" y="188" class="cn date">2000-2008</text>
    <text x="930" y="188" class="cn date">2015-08</text>
    <text x="1560" y="188" class="cn date">2017-08</text>
    <text x="2230" y="188" class="cn date">2019-12</text>
    <text x="3020" y="188" class="cn date">2020-01-15</text>
    <text x="3710" y="188" class="cn date">2021-12-10</text>
    <text x="4388" y="188" class="cn date">2022-01</text>
    <text x="5090" y="188" class="cn date">2023-09</text>
    <text x="5752" y="188" class="cn date">2023-12</text>
    <text x="6412" y="188" class="cn date">2024-07</text>
    <text x="170" y="278" class="cn faint">原图既有时间轴节点保持原版位置与图文格式</text>
    <text x="170" y="322" class="cn tiny">2007 / 2016-12 / 2017-03 / 2018-07 / 2019-01 / 2019-05 / 2020-08-19 / 2021-07-26 / 2021-09-07 / 2021-09 / 2022-02 / 2022-09 / 2023-04 / 2022-12 / 2023-12 等</text>
  </g>

  <g filter="url(#softGlow)">
    <text x="4560" y="468" text-anchor="middle" class="serif" font-size="250" fill="#ffffff" transform="rotate(-8 4560 468)">26</text>
    <text x="4590" y="528" text-anchor="middle" class="cn" font-size="46" font-weight="700" fill="#ffffff">年</text>
    <text x="4565" y="586" text-anchor="middle" class="cn" font-size="52" font-weight="700" fill="#ffffff">历程</text>
    <text x="4248" y="676" class="cn tiny" fill="#eea788" transform="rotate(-17 4248 676)">2000-2025</text>
  </g>

  <g>
    <rect x="7860" y="106" width="1210" height="854" rx="56" fill="rgba(11,16,28,0.94)" stroke="url(#gold)" stroke-width="4"/>
    <text x="8465" y="166" text-anchor="middle" class="cn title">2025 新增</text>

    <line x1="7990" y1="536" x2="8940" y2="536" stroke="url(#gold)" stroke-width="4"/>

    <g>
      <line x1="8110" y1="270" x2="8110" y2="536" stroke="#dcb87a" stroke-width="4"/>
      <rect x="7966" y="198" width="288" height="50" rx="24" fill="url(#badge)" stroke="#efd29d" stroke-width="2"/>
      <text x="8110" y="231" text-anchor="middle" class="cn date">2025.01.10</text>
      <circle cx="8110" cy="536" r="15" fill="#ecc47e"/>
      <text x="7966" y="304" class="cn body">薛付忠院长主编的医学数据学</text>
      <text x="7966" y="344" class="cn body">专业指南性专著《医学数据学</text>
      <text x="7966" y="384" class="cn body">专业建设探索与实践》顺利</text>
      <text x="7966" y="424" class="cn body">出版发行</text>
    </g>

    <g>
      <line x1="8540" y1="536" x2="8540" y2="278" stroke="#dcb87a" stroke-width="4"/>
      <rect x="8396" y="566" width="288" height="50" rx="24" fill="url(#badge)" stroke="#efd29d" stroke-width="2"/>
      <text x="8540" y="599" text-anchor="middle" class="cn date">2025.05.08</text>
      <circle cx="8540" cy="536" r="15" fill="#ecc47e"/>
      <text x="8356" y="690" class="cn body">获山东大学 2025 年教学成果奖</text>
      <text x="8356" y="730" class="cn body">（本科）特等奖</text>
    </g>

    <g>
      <line x1="8280" y1="536" x2="8280" y2="780" stroke="#dcb87a" stroke-width="4"/>
      <rect x="8136" y="808" width="288" height="50" rx="24" fill="url(#badge)" stroke="#efd29d" stroke-width="2"/>
      <text x="8280" y="841" text-anchor="middle" class="cn date">2025.05.28</text>
      <circle cx="8280" cy="536" r="15" fill="#ecc47e"/>
      <text x="8054" y="922" class="cn body">山东大学“数智健康”东营</text>
      <text x="8054" y="962" class="cn body">研究基地揭牌</text>
    </g>

    <g>
      <line x1="8940" y1="536" x2="8940" y2="238" stroke="#dcb87a" stroke-width="4"/>
      <rect x="8796" y="166" width="288" height="50" rx="24" fill="url(#badge)" stroke="#efd29d" stroke-width="2"/>
      <text x="8940" y="199" text-anchor="middle" class="cn date">2025.12.19</text>
      <circle cx="8940" cy="536" r="15" fill="#ecc47e"/>
      <text x="8652" y="286" class="cn body">成果“大数据驱动的慢病一体化</text>
      <text x="8652" y="326" class="cn body">智能预测预警干预的关键技术及</text>
      <text x="8652" y="366" class="cn body">转化应用”获教育部科学研究</text>
      <text x="8652" y="406" class="cn body">优秀成果奖（工程技术类）</text>
      <text x="8652" y="446" class="cn body">二等奖</text>
    </g>

    <g>
      <line x1="8820" y1="536" x2="8820" y2="790" stroke="#dcb87a" stroke-width="4"/>
      <rect x="8676" y="818" width="288" height="50" rx="24" fill="url(#badge)" stroke="#efd29d" stroke-width="2"/>
      <text x="8820" y="851" text-anchor="middle" class="cn date">2025.12.27</text>
      <circle cx="8820" cy="536" r="15" fill="#ecc47e"/>
      <text x="8542" y="922" class="cn body">获第十届高等教育省级教学成果奖</text>
      <text x="8542" y="962" class="cn body">（本科）一等奖</text>
    </g>
  </g>
</svg>
